PathFileType	4	(X/Y/Z)	27_2_70_p0_0-184.trc
DataRate	CameraRate	NumFrames	NumMarkers	Units	OrigDataRate	OrigDataStartFrame	OrigNumFrames
59.0	59.0	7	27	m	59.0	115	185
Frame#	Time	RHip			RKnee			RAnkle			RBigToe			RSmallToe			RHeel			LHip			LKnee			LAnkle			LBigToe			LSmallToe			LHeel			Neck			Head			Nose			RShoulder			RElbow			RWrist			RThumb			RIndex			RPinky			LShoulder			LElbow			LWrist			LThumb			LIndex			LPinky			
		X1	Y1	Z1	X2	Y2	Z2	X3	Y3	Z3	X4	Y4	Z4	X5	Y5	Z5	X6	Y6	Z6	X7	Y7	Z7	X8	Y8	Z8	X9	Y9	Z9	X10	Y10	Z10	X11	Y11	Z11	X12	Y12	Z12	X13	Y13	Z13	X14	Y14	Z14	X15	Y15	Z15	X16	Y16	Z16	X17	Y17	Z17	X18	Y18	Z18	X19	Y19	Z19	X20	Y20	Z20	X21	Y21	Z21	X22	Y22	Z22	X23	Y23	Z23	X24	Y24	Z24	X25	Y25	Z25	X26	Y26	Z26	X27	Y27	Z27	
115	1.9491525423728813	0.14090486951424938	0.5554546358109964	0.8697543406483691	0.15595923096307682	0.6939373263305358	1.349643895250866	0.18174341790186313	0.7781989415369751	1.8023983956769385	0.12424601091283183	0.5893244042797524	1.8411291196831963	0.18252579149560288	0.5824883737220061	1.820015927137724	0.1708236482359125	0.8864911512227099	1.8840554545132626	-0.07265079212472667	0.57394440450994	0.8781618619945718	-0.044693770031906166	0.7288471990984385	1.3724492728573876	-0.023213929340682803	0.7943391810045101	1.8246865090090016	-0.03476643957392023	0.5960562887846002	1.8325213047967468	-0.08505284544496328	0.6504358418464099	1.843907673152621	0.012157423072704109	0.8795211087158715	1.8903862383215309	0.01605203478570248	0.5647869289259564	0.30086598334529935	0.023009845825577788	0.5062526423023094	0.07012654670650761	0.01596356282387582	0.4285313070907996	0.19418326738501987	0.1704424019150124	0.5538539721007958	0.39434690497586417	0.21047449619089917	0.5434384806610758	0.651622789843948	0.0565303739152968	0.35738886784630797	0.6770974436540876	-0.022264165142762755	0.28186878502158397	0.7122227463552299	-0.02548379296085093	0.27216010116417805	0.7200585657119446	-0.0111744353780642	0.2965574803229649	0.7494829742261123	-0.15561019810380683	0.5693204408032211	0.40767423200225	-0.16355553619001106	0.6192443720329994	0.6777081113499535	-0.167356129289177	0.42986260912271185	0.5808527359596608	-0.18183304119699079	0.3944394453049957	0.4941705281954466	-0.18612002982736064	0.3528816217201495	0.5003750202017543	-0.17174298210558184	0.3583355660811649	0.5538938094724476
116	1.9661016949152543	0.14074919169268835	0.5435534999805187	0.8671275644029964	0.161465427165797	0.7070214577454065	1.3540719559701857	0.18172972870841897	0.7781615448927653	1.8022068357232193	0.12806147155073574	0.5895238185681498	1.840492323372491	0.18677166105764745	0.5830398632869629	1.819679963026314	0.17066698742664818	0.8863914963607115	1.8838784653171283	-0.07582982422037456	0.5874893381533582	0.8804120199226777	-0.049912497024116424	0.7265931840371487	1.3669953605298346	-0.02797361664583247	0.7921996613952531	1.8237033404093372	-0.03477085882932765	0.5961401102041276	1.832835524403022	-0.08526156717235397	0.6501047924882309	1.8437992198060815	0.005285670736878907	0.8725968335071951	1.8829183655611235	0.019385881982637243	0.5644573385995186	0.3009142887431763	0.0230156699639626	0.5062823963055909	0.07015230652553651	0.020141263741049284	0.4387538100707522	0.19347570007873915	0.17069386991966753	0.55459299391188	0.3978882985983021	0.20892507507672292	0.5569309488345721	0.6537819901462899	0.06409786804097539	0.35616544443463166	0.6717731822467707	-0.02144086083614511	0.26942341240684536	0.658559648225181	-0.02400778204204557	0.2569763875994198	0.6768453955064199	-0.011137031998366104	0.2961857442711397	0.7308742883744134	-0.14825363109694037	0.5826034284681127	0.4080243428212284	-0.15683261750329192	0.6177190292929037	0.6824327280516235	-0.18558632251544574	0.4319738627986238	0.5958403363795484	-0.18307937802828625	0.3641807557697068	0.5053513696234989	-0.20112670665013618	0.3305468444131107	0.5167344935005649	-0.17532381611546974	0.3589442587723801	0.5796438710975123
117	1.9830508474576272	0.13542569221056597	0.5715268194433538	0.8731134834188784	0.15606343554945679	0.6938825457215171	1.3496084235306556	0.181719817411923	0.7784211538641568	1.802224798540716	0.12805544989283507	0.5894205536048286	1.8408024745940867	0.18674030805280065	0.5830615739751706	1.8200300002190049	0.1660987408309271	0.9023576150280633	1.8862371154166941	-0.07486224489856486	0.602491423171055	0.8833593593318678	-0.04998289231930304	0.726912153166348	1.367096463792736	-0.023440077500493747	0.7939470405439333	1.8245572013659734	-0.03481538420378178	0.5961233897267739	1.8328023604040724	-0.08532613305942734	0.650105372732983	1.8437685550707283	0.009966597731613404	0.8744371254177202	1.8837648958850204	0.020184874800803082	0.5641210055588873	0.3007313926513631	0.02568924458805678	0.4947408608716864	0.06815795993264066	0.026673852852989146	0.43687748621338185	0.19324791543772113	0.17046389621534908	0.554836280280735	0.39788661274504833	0.20772789206938122	0.5648015558128126	0.6593159502403232	0.06128038255542833	0.367457839898122	0.6669149499468137	-0.005023880103417461	0.23035696943698092	0.6218021550208318	-0.015036941724118638	0.24580513083833722	0.6494920006363285	-0.011286584674709775	0.29445304222722923	0.6991966874518473	-0.14867467444434188	0.5718384507599977	0.41132909211728064	-0.1710357080459475	0.6618830867240172	0.6814041790751878	-0.18856193517049397	0.4404939312968024	0.6294714351298247	-0.17995195885390286	0.36712474596443395	0.5482356557110084	-0.21576115963562506	0.2985649625525994	0.5506769352403824	-0.18986230255226386	0.3369359324063255	0.5988004455396639
118	2.0	0.13506173754659645	0.5718295265087772	0.8730354934610565	0.15730754938954955	0.6956684497388915	1.3543406428044915	0.1817302464148974	0.7781401289796763	1.8021365303217434	0.1280208773306992	0.5894806970796799	1.8409185535820305	0.18826602597275816	0.5847359627501687	1.8256272023605011	0.17086100313083602	0.8864673824515872	1.8838553486876397	-0.07928385420382589	0.6012181037426689	0.8833444724762815	-0.049961769914592065	0.726681553464798	1.3669314563129937	-0.023379743338719543	0.7938078636858604	1.824377660438066	-0.03488851627895287	0.5959828288903306	1.8329769476688862	-0.08543330499493146	0.6503155907085827	1.8440061433012591	0.010050218252539758	0.8740309336606008	1.8834309896642134	0.023433308699653158	0.5518073570826221	0.3005066330222632	0.02592834764021297	0.49492293586165603	0.06816327104914569	0.03721743373983946	0.43613622115347644	0.1928801101531816	0.1703789098791361	0.5542101936061601	0.39782201547248297	0.20439236545876605	0.5514329571410886	0.6629039987244177	0.06670125361748726	0.34346519315772894	0.662300307869912	-0.004923502948224545	0.2300075714586398	0.5936436822628675	-0.010909700872478086	0.2429530144016604	0.6244089769775621	-0.014346630359784064	0.2919257862171665	0.6812960259134608	-0.15640737217617368	0.5579915216751067	0.41089793876488595	-0.17496317167650877	0.6663432288887192	0.6709192945209362	-0.19180314197659404	0.4434409554534047	0.6482880269904586	-0.17863095367694856	0.34914647516946423	0.5832001035102825	-0.22206860126431613	0.29029161562956873	0.589612727197334	-0.18477640459532935	0.33373066674671853	0.6469898760378437
119	2.016949152542373	0.13524037049523252	0.571638552381814	0.872953676231638	0.15720104400591334	0.695765572961736	1.3544459239839213	0.18167513456744486	0.7782303968799532	1.80224810621419	0.1271072787310086	0.5903509728093916	1.8453520812814255	0.18673197309873263	0.5829539550954477	1.8197484886495752	0.16919949158933695	0.8849253667721267	1.8777789680541805	-0.07455816987731023	0.6016525944485598	0.8799411201278363	-0.04998745035348187	0.7265301107897048	1.3669637202425704	-0.027966353108012345	0.7923167623131046	1.8237086038380819	-0.03481586601225163	0.5964937784722463	1.833076851983395	-0.08536306654037726	0.6510173688799197	1.8444594654661957	0.010063733481455603	0.8744193315531915	1.883601270792723	0.0211178281109498	0.5646027679626424	0.3038216570132154	0.025856731792593086	0.4946944479783568	0.06754782545641619	0.04371803339460372	0.43442780362265115	0.1929980833328016	0.17012935752810168	0.5536868255720361	0.39775120890005405	0.19921067356935443	0.5361975402611627	0.6636009319871261	0.07379402047827056	0.3435922556797667	0.6550505393898519	0.0009693092989760036	0.22236964561315312	0.5702266406933243	-0.01126714600173337	0.24023694092570172	0.5970366338140163	-0.012451732000418823	0.2808909373642926	0.663103545026226	-0.15540359107866858	0.58222054741905	0.4118466551311873	-0.1628627359703433	0.6759235162880756	0.6680649330468015	-0.19295515562138468	0.462262454852371	0.679674914172269	-0.18928687807903602	0.32880390534947485	0.6014026587713682	-0.2294899902284577	0.28593208877522236	0.6143209410183113	-0.20136359144200636	0.3528760255529585	0.6756040545863861
120	2.0338983050847457	0.13850485827607636	0.5569016307343357	0.8698218347470533	0.1528093877350634	0.6941734172526944	1.3537177276695347	0.18183775352727377	0.7781460481387488	1.8020996096327604	0.1273816986018068	0.5909133831077029	1.843997614380238	0.1883536742102934	0.5850087479006711	1.8249150207319804	0.17090359353026724	0.887846836682124	1.8805258159673828	-0.07459620869085902	0.6019020373381737	0.8797508046454375	-0.048920838091612365	0.7281961742238435	1.3722060136702507	-0.02805078820778183	0.7926380908919631	1.823685970739512	-0.03502326571457756	0.5963884782098153	1.8332605809300275	-0.08938620109342153	0.6651649586607552	1.8518814921168303	0.006559283614921141	0.8716026559853963	1.8767016352792867	0.019924243727902906	0.5403180815100886	0.3069994591448564	0.026284707482963476	0.4949318805244037	0.06762551770419502	0.047949135596659795	0.44451137264421803	0.19274780492708563	0.17227205111839303	0.5392730635751325	0.40049852716826667	0.19598212340635243	0.5543881392169074	0.6793194605849447	0.07148303968371282	0.35468474713738074	0.6536104839911275	0.004904831069705829	0.24852414832127737	0.5683337501629375	0.017542715022678693	0.21570177688281544	0.5714352845436661	0.01293984474941897	0.25526087740929065	0.6380416807379523	-0.1558320310523842	0.5702239348611977	0.4148850564879338	-0.16960803307693292	0.6630657409545292	0.6614788135757294	-0.19266194761109087	0.4529307345682457	0.6892771509700945	-0.21106406715763357	0.2915267286081739	0.6279603910475159	-0.23264605502171493	0.27768516744512395	0.6399335706688373	-0.20814249982433386	0.32893479706837814	0.6908914042187075
121	2.0508474576271185	0.13831807422713374	0.5570635202194892	0.8657364891094919	0.15275097535794005	0.6941356734500796	1.3536216190195063	0.1817507465913404	0.7781744596333213	1.8020891509114243	0.12725015575699755	0.590788384405638	1.8442752477656232	0.18577504225783797	0.5998647513769083	1.8328976442750224	0.17178276911283483	0.8873776999526536	1.8750849564015877	-0.07089643502157585	0.5879765635933983	0.873251442699712	-0.048922674757477545	0.7282864317628139	1.3722264272265878	-0.028064926074626073	0.7923452243794223	1.8236383440145552	-0.03506403850486059	0.5963300960118073	1.8333299201923916	-0.08576493986417469	0.6504516897099109	1.8442258576898043	0.0018493943235436579	0.8588256588609305	1.8800634668624108	0.019782206222192036	0.5400615933988778	0.310744982692221	0.030483068396219407	0.5066355622775853	0.06676482409781223	0.050998165428112904	0.43323106892709784	0.1964016815784785	0.17223922948607592	0.5386717355736249	0.40055225966735514	0.19243665857635944	0.545057099989019	0.676040133330484	0.07140333562428444	0.3544203315329335	0.6507957552228536	0.026349418435438237	0.22660871093340523	0.5639719738707749	0.02755234490011688	0.20549809946077782	0.5629971978328083	0.04269456603676712	0.2570090231634685	0.6187050948653788	-0.15964392210389047	0.5684941489879723	0.41822582102491246	-0.18113108009418524	0.6683197657451793	0.6670604232873832	-0.19418499014630547	0.4628684058794224	0.6912934288573765	-0.2161542016648563	0.310813521245089	0.6406238942321464	-0.23283303366664015	0.2790282600914309	0.6459712426742739	-0.22409179437356821	0.36219572687833557	0.7069107257853168
